<svg xmlns="http://www.w3.org/2000/svg" xmlns:xlink="http://www.w3.org/1999/xlink" width="2000" zoomAndPan="magnify" viewBox="0 0 1500 1499.999933" height="2000" preserveAspectRatio="xMidYMid meet" version="1.0"><defs><g/><clipPath id="88c0c0c187"><rect x="0" width="1117" y="0" height="488"/></clipPath><clipPath id="89d4b1d7d4"><path d="M 519 252.484375 L 980 252.484375 L 980 734.734375 L 519 734.734375 Z M 519 252.484375 " clip-rule="nonzero"/></clipPath><clipPath id="6b1ba4aafb"><path d="M 447.179688 454 L 499 454 L 499 621 L 447.179688 621 Z M 447.179688 454 " clip-rule="nonzero"/></clipPath><clipPath id="42b3c204cc"><rect x="0" width="737" y="0" height="68"/></clipPath></defs><g transform="matrix(1, 0, 0, 1, 193, 593)"><g clip-path="url(#88c0c0c187)"><g fill="#000000" fill-opacity="1"><g transform="translate(2.04117, 383.011433)"><g><path d="M 102.921875 3.59375 C 84.835938 3.59375 67.019531 1.53125 49.46875 -2.59375 C 31.914062 -6.71875 17.820312 -12.101562 7.1875 -18.75 L 29.921875 -70.609375 C 39.753906 -64.492188 51.453125 -59.640625 65.015625 -56.046875 C 78.585938 -52.453125 92.019531 -50.65625 105.3125 -50.65625 C 117.550781 -50.65625 126.257812 -51.921875 131.4375 -54.453125 C 136.625 -56.984375 139.21875 -60.640625 139.21875 -65.421875 C 139.21875 -70.210938 136.09375 -73.601562 129.84375 -75.59375 C 123.59375 -77.59375 113.6875 -79.519531 100.125 -81.375 C 82.84375 -83.507812 68.148438 -86.300781 56.046875 -89.75 C 43.941406 -93.207031 33.5 -99.59375 24.71875 -108.90625 C 15.945312 -118.21875 11.5625 -131.25 11.5625 -148 C 11.5625 -161.832031 15.679688 -174.132812 23.921875 -184.90625 C 32.171875 -195.675781 44.207031 -204.1875 60.03125 -210.4375 C 75.863281 -216.6875 94.816406 -219.8125 116.890625 -219.8125 C 132.578125 -219.8125 148.132812 -218.210938 163.5625 -215.015625 C 178.988281 -211.828125 191.882812 -207.304688 202.25 -201.453125 L 179.515625 -150 C 160.367188 -160.632812 139.625 -165.953125 117.28125 -165.953125 C 105.3125 -165.953125 96.535156 -164.554688 90.953125 -161.765625 C 85.367188 -158.972656 82.578125 -155.316406 82.578125 -150.796875 C 82.578125 -145.742188 85.632812 -142.21875 91.75 -140.21875 C 97.863281 -138.226562 107.96875 -136.164062 122.0625 -134.03125 C 139.882812 -131.375 154.644531 -128.316406 166.34375 -124.859375 C 178.050781 -121.398438 188.222656 -115.082031 196.859375 -105.90625 C 205.503906 -96.738281 209.828125 -83.910156 209.828125 -67.421875 C 209.828125 -53.859375 205.703125 -41.691406 197.453125 -30.921875 C 189.210938 -20.148438 177.046875 -11.703125 160.953125 -5.578125 C 144.867188 0.535156 125.523438 3.59375 102.921875 3.59375 Z M 102.921875 3.59375 "/></g></g></g><g fill="#000000" fill-opacity="1"><g transform="translate(187.5195, 383.011433)"><g><path d="M 305.96875 -219.8125 C 332.5625 -219.8125 353.769531 -211.832031 369.59375 -195.875 C 385.425781 -179.914062 393.34375 -155.847656 393.34375 -123.671875 L 393.34375 0 L 317.546875 0 L 317.546875 -111.296875 C 317.546875 -126.453125 314.6875 -137.617188 308.96875 -144.796875 C 303.25 -151.984375 295.203125 -155.578125 284.828125 -155.578125 C 273.390625 -155.578125 264.210938 -151.585938 257.296875 -143.609375 C 250.390625 -135.628906 246.9375 -123.53125 246.9375 -107.3125 L 246.9375 0 L 171.140625 0 L 171.140625 -111.296875 C 171.140625 -140.816406 160.234375 -155.578125 138.421875 -155.578125 C 126.722656 -155.578125 117.414062 -151.585938 110.5 -143.609375 C 103.582031 -135.628906 100.125 -123.53125 100.125 -107.3125 L 100.125 0 L 24.328125 0 L 24.328125 -216.21875 L 96.546875 -216.21875 L 96.546875 -193.484375 C 104.515625 -202.253906 114.019531 -208.832031 125.0625 -213.21875 C 136.101562 -217.613281 148.140625 -219.8125 161.171875 -219.8125 C 176.328125 -219.8125 189.890625 -217.015625 201.859375 -211.421875 C 213.828125 -205.835938 223.53125 -197.328125 230.96875 -185.890625 C 239.476562 -196.796875 250.25 -205.175781 263.28125 -211.03125 C 276.3125 -216.882812 290.539062 -219.8125 305.96875 -219.8125 Z M 305.96875 -219.8125 "/></g></g></g><g fill="#000000" fill-opacity="1"><g transform="translate(571.644157, 383.011433)"><g><path d="M 116.484375 -219.8125 C 152.390625 -219.8125 179.78125 -211.628906 198.65625 -195.265625 C 217.539062 -178.910156 226.984375 -153.847656 226.984375 -120.078125 L 226.984375 0 L 156.375 0 L 156.375 -27.921875 C 145.46875 -6.910156 124.191406 3.59375 92.546875 3.59375 C 75.796875 3.59375 61.300781 0.664062 49.0625 -5.1875 C 36.832031 -11.039062 27.59375 -18.953125 21.34375 -28.921875 C 15.09375 -38.890625 11.96875 -50.257812 11.96875 -63.03125 C 11.96875 -83.507812 19.8125 -99.398438 35.5 -110.703125 C 51.195312 -122.003906 75.398438 -127.65625 108.109375 -127.65625 L 151.1875 -127.65625 C 149.863281 -150.53125 134.570312 -161.96875 105.3125 -161.96875 C 94.9375 -161.96875 84.429688 -160.300781 73.796875 -156.96875 C 63.160156 -153.644531 54.117188 -149.0625 46.671875 -143.21875 L 21.140625 -194.671875 C 33.109375 -202.648438 47.671875 -208.832031 64.828125 -213.21875 C 81.984375 -217.613281 99.203125 -219.8125 116.484375 -219.8125 Z M 113.6875 -44.28125 C 122.46875 -44.28125 130.179688 -46.40625 136.828125 -50.65625 C 143.472656 -54.914062 148.257812 -61.164062 151.1875 -69.40625 L 151.1875 -88.15625 L 118.484375 -88.15625 C 96.410156 -88.15625 85.375 -80.84375 85.375 -66.21875 C 85.375 -59.570312 87.898438 -54.253906 92.953125 -50.265625 C 98.003906 -46.273438 104.914062 -44.28125 113.6875 -44.28125 Z M 113.6875 -44.28125 "/></g></g></g><g fill="#000000" fill-opacity="1"><g transform="translate(789.432463, 383.011433)"><g><path d="M 96.546875 -190.28125 C 104.253906 -200.125 114.289062 -207.503906 126.65625 -212.421875 C 139.019531 -217.347656 153.179688 -219.8125 169.140625 -219.8125 L 169.140625 -151.59375 C 162.222656 -152.382812 156.503906 -152.78125 151.984375 -152.78125 C 135.765625 -152.78125 123.066406 -148.390625 113.890625 -139.609375 C 104.710938 -130.835938 100.125 -117.410156 100.125 -99.328125 L 100.125 0 L 24.328125 0 L 24.328125 -216.21875 L 96.546875 -216.21875 Z M 96.546875 -190.28125 "/></g></g></g><g fill="#000000" fill-opacity="1"><g transform="translate(933.426409, 383.011433)"><g><path d="M 173.53125 -8.78125 C 167.144531 -4.789062 159.363281 -1.734375 150.1875 0.390625 C 141.019531 2.523438 131.25 3.59375 120.875 3.59375 C 92.6875 3.59375 71.007812 -3.316406 55.84375 -17.140625 C 40.6875 -30.972656 33.109375 -51.585938 33.109375 -78.984375 L 33.109375 -151.59375 L 1.59375 -151.59375 L 1.59375 -208.234375 L 33.109375 -208.234375 L 33.109375 -264.484375 L 108.90625 -264.484375 L 108.90625 -208.234375 L 158.375 -208.234375 L 158.375 -151.59375 L 108.90625 -151.59375 L 108.90625 -79.78125 C 108.90625 -72.070312 110.960938 -66.019531 115.078125 -61.625 C 119.203125 -57.238281 124.722656 -55.046875 131.640625 -55.046875 C 140.421875 -55.046875 148.132812 -57.304688 154.78125 -61.828125 Z M 173.53125 -8.78125 "/></g></g></g></g></g><g clip-path="url(#89d4b1d7d4)"><path fill="#0a2635" d="M 877.898438 734.6875 L 621.738281 734.6875 C 565.324219 734.6875 519.554688 688.917969 519.554688 632.859375 L 519.554688 466.816406 C 519.554688 410.402344 565.324219 364.632812 621.738281 364.632812 L 738.820312 364.632812 L 739.175781 325.605469 C 723.917969 320.996094 712.566406 306.800781 712.566406 289.773438 C 712.566406 269.195312 729.59375 252.519531 750.171875 252.519531 C 770.75 252.519531 787.78125 269.195312 787.78125 289.773438 C 787.78125 306.800781 776.074219 321.347656 760.460938 325.960938 L 760.109375 364.632812 L 877.898438 364.632812 C 933.957031 364.632812 979.726562 410.402344 979.726562 466.816406 L 979.726562 633.214844 C 979.726562 689.273438 933.957031 734.6875 877.898438 734.6875 Z M 653.667969 573.609375 C 623.511719 573.609375 599.738281 549.835938 599.738281 520.035156 C 599.738281 489.878906 623.511719 466.105469 653.667969 466.105469 C 683.828125 466.105469 707.242188 489.878906 707.242188 520.035156 C 707.242188 549.835938 683.828125 573.609375 653.667969 573.609375 Z M 653.667969 487.394531 C 635.21875 487.394531 621.027344 501.585938 621.027344 520.035156 C 621.027344 538.128906 635.21875 552.320312 653.667969 552.320312 C 671.765625 552.320312 686.308594 538.128906 686.308594 520.035156 C 686.308594 501.585938 671.765625 487.394531 653.667969 487.394531 Z M 846.324219 571.480469 C 816.164062 571.480469 792.039062 547.355469 792.039062 517.550781 C 792.039062 487.75 816.164062 463.621094 846.324219 463.621094 C 875.769531 463.621094 899.898438 487.75 899.898438 517.550781 C 899.898438 547.355469 875.769531 571.480469 846.324219 571.480469 Z M 846.324219 484.910156 C 827.875 484.910156 813.328125 499.8125 813.328125 517.550781 C 813.328125 535.644531 827.875 550.546875 846.324219 550.546875 C 864.417969 550.546875 878.609375 535.644531 878.609375 517.550781 C 878.609375 499.101562 864.0625 484.910156 846.324219 484.910156 Z M 745.917969 636.054688 C 725.691406 636.054688 707.953125 626.472656 698.019531 617.957031 C 693.40625 614.054688 693.050781 606.960938 696.953125 603.058594 C 700.855469 598.800781 707.242188 598.089844 711.855469 602.347656 C 715.050781 605.1875 745.917969 629.667969 775.363281 602.703125 C 779.621094 598.800781 786.007812 598.800781 790.621094 603.058594 C 794.523438 607.667969 794.523438 614.054688 790.265625 618.3125 C 775.363281 631.085938 760.109375 636.054688 745.917969 636.054688 Z M 745.917969 636.054688 " fill-opacity="1" fill-rule="evenodd"/></g><g clip-path="url(#6b1ba4aafb)"><path fill="#0a2635" d="M 498.269531 620.796875 L 494.011719 620.796875 C 468.464844 620.796875 447.179688 599.863281 447.179688 573.964844 L 447.179688 501.585938 C 447.179688 475.683594 468.464844 454.398438 494.011719 454.398438 L 498.976562 454.398438 C 498.625 458.300781 498.269531 462.558594 498.269531 466.816406 Z M 498.269531 620.796875 " fill-opacity="1" fill-rule="evenodd"/></g><path fill="#0a2635" d="M 1005.273438 620.796875 L 1001.015625 620.796875 L 1001.015625 466.816406 C 1001.015625 462.203125 1000.660156 457.945312 1000.304688 454.042969 L 1005.273438 454.042969 C 1031.527344 454.042969 1052.816406 474.976562 1052.816406 501.230469 L 1052.816406 573.964844 C 1052.816406 600.21875 1031.527344 620.796875 1005.273438 620.796875 Z M 1005.273438 620.796875 " fill-opacity="1" fill-rule="evenodd"/><g transform="matrix(1, 0, 0, 1, 402, 1018)"><g clip-path="url(#42b3c204cc)"><g fill="#0a2635" fill-opacity="1"><g transform="translate(3.388466, 53.092418)"><g><path d="M 4.53125 -38.171875 L 13.359375 -38.171875 L 13.359375 0 L 4.53125 0 Z M 4.53125 -38.171875 "/></g></g></g><g fill="#0a2635" fill-opacity="1"><g transform="translate(64.924062, 53.092418)"><g><path d="M 39.53125 -38.171875 L 39.53125 0 L 32.28125 0 L 13.25 -23.171875 L 13.25 0 L 4.53125 0 L 4.53125 -38.171875 L 11.828125 -38.171875 L 30.8125 -15 L 30.8125 -38.171875 Z M 39.53125 -38.171875 "/></g></g></g><g fill="#0a2635" fill-opacity="1"><g transform="translate(152.6352, 53.092418)"><g><path d="M 41.21875 -38.171875 L 24.703125 0 L 15.984375 0 L -0.484375 -38.171875 L 9.046875 -38.171875 L 20.671875 -10.90625 L 32.453125 -38.171875 Z M 41.21875 -38.171875 "/></g></g></g><g fill="#0a2635" fill-opacity="1"><g transform="translate(236.965321, 53.092418)"><g><path d="M 34.078125 -7.09375 L 34.078125 0 L 4.53125 0 L 4.53125 -38.171875 L 33.375 -38.171875 L 33.375 -31.078125 L 13.3125 -31.078125 L 13.3125 -22.796875 L 31.03125 -22.796875 L 31.03125 -15.921875 L 13.3125 -15.921875 L 13.3125 -7.09375 Z M 34.078125 -7.09375 "/></g></g></g><g fill="#0a2635" fill-opacity="1"><g transform="translate(317.205526, 53.092418)"><g><path d="M 39.53125 -38.171875 L 39.53125 0 L 32.28125 0 L 13.25 -23.171875 L 13.25 0 L 4.53125 0 L 4.53125 -38.171875 L 11.828125 -38.171875 L 30.8125 -15 L 30.8125 -38.171875 Z M 39.53125 -38.171875 "/></g></g></g><g fill="#0a2635" fill-opacity="1"><g transform="translate(404.916664, 53.092418)"><g><path d="M 12.4375 -30.96875 L 0.21875 -30.96875 L 0.21875 -38.171875 L 33.484375 -38.171875 L 33.484375 -30.96875 L 21.265625 -30.96875 L 21.265625 0 L 12.4375 0 Z M 12.4375 -30.96875 "/></g></g></g><g fill="#0a2635" fill-opacity="1"><g transform="translate(482.266634, 53.092418)"><g><path d="M 23.015625 0.65625 C 19.046875 0.65625 15.472656 -0.195312 12.296875 -1.90625 C 9.117188 -3.613281 6.628906 -5.96875 4.828125 -8.96875 C 3.023438 -11.96875 2.125 -15.34375 2.125 -19.09375 C 2.125 -22.832031 3.023438 -26.203125 4.828125 -29.203125 C 6.628906 -32.203125 9.117188 -34.554688 12.296875 -36.265625 C 15.472656 -37.972656 19.046875 -38.828125 23.015625 -38.828125 C 26.972656 -38.828125 30.53125 -37.972656 33.6875 -36.265625 C 36.851562 -34.554688 39.34375 -32.203125 41.15625 -29.203125 C 42.976562 -26.203125 43.890625 -22.832031 43.890625 -19.09375 C 43.890625 -15.34375 42.976562 -11.96875 41.15625 -8.96875 C 39.34375 -5.96875 36.851562 -3.613281 33.6875 -1.90625 C 30.53125 -0.195312 26.972656 0.65625 23.015625 0.65625 Z M 23.015625 -6.875 C 25.265625 -6.875 27.296875 -7.390625 29.109375 -8.421875 C 30.929688 -9.460938 32.359375 -10.910156 33.390625 -12.765625 C 34.429688 -14.617188 34.953125 -16.726562 34.953125 -19.09375 C 34.953125 -21.445312 34.429688 -23.550781 33.390625 -25.40625 C 32.359375 -27.257812 30.929688 -28.703125 29.109375 -29.734375 C 27.296875 -30.773438 25.265625 -31.296875 23.015625 -31.296875 C 20.753906 -31.296875 18.710938 -30.773438 16.890625 -29.734375 C 15.078125 -28.703125 13.648438 -27.257812 12.609375 -25.40625 C 11.578125 -23.550781 11.0625 -21.445312 11.0625 -19.09375 C 11.0625 -16.726562 11.578125 -14.617188 12.609375 -12.765625 C 13.648438 -10.910156 15.078125 -9.460938 16.890625 -8.421875 C 18.710938 -7.390625 20.753906 -6.875 23.015625 -6.875 Z M 23.015625 -6.875 "/></g></g></g><g fill="#0a2635" fill-opacity="1"><g transform="translate(571.940947, 53.092418)"><g><path d="M 28.84375 0 L 21.484375 -10.640625 L 13.359375 -10.640625 L 13.359375 0 L 4.53125 0 L 4.53125 -38.171875 L 21.046875 -38.171875 C 24.429688 -38.171875 27.367188 -37.609375 29.859375 -36.484375 C 32.347656 -35.359375 34.265625 -33.757812 35.609375 -31.6875 C 36.953125 -29.613281 37.625 -27.160156 37.625 -24.328125 C 37.625 -21.484375 36.941406 -19.035156 35.578125 -16.984375 C 34.210938 -14.929688 32.28125 -13.359375 29.78125 -12.265625 L 38.328125 0 Z M 28.6875 -24.328125 C 28.6875 -26.460938 27.992188 -28.101562 26.609375 -29.25 C 25.234375 -30.394531 23.21875 -30.96875 20.5625 -30.96875 L 13.359375 -30.96875 L 13.359375 -17.671875 L 20.5625 -17.671875 C 23.21875 -17.671875 25.234375 -18.25 26.609375 -19.40625 C 27.992188 -20.570312 28.6875 -22.210938 28.6875 -24.328125 Z M 28.6875 -24.328125 "/></g></g></g><g fill="#0a2635" fill-opacity="1"><g transform="translate(655.671227, 53.092418)"><g><path d="M 22.84375 -13.53125 L 22.84375 0 L 14.015625 0 L 14.015625 -13.640625 L -0.765625 -38.171875 L 8.609375 -38.171875 L 18.8125 -21.21875 L 29.015625 -38.171875 L 37.6875 -38.171875 Z M 22.84375 -13.53125 "/></g></g></g></g></g></svg>